<?xml version="1.0" encoding="utf-8"?>
<!-- Generator: Adobe Illustrator 27.9.1, SVG Export Plug-In . SVG Version: 6.00 Build 0)  -->
<svg version="1.1" id="Layer_1" xmlns="http://www.w3.org/2000/svg" xmlns:xlink="http://www.w3.org/1999/xlink" x="0px" y="0px"
	 viewBox="0 0 1000 1000" style="enable-background:new 0 0 1000 1000;" xml:space="preserve">
<style type="text/css">
	.st0{fill:#FFFFFF;}
	.st1{fill-rule:evenodd;clip-rule:evenodd;fill:#BCBCBC;}
	.st2{fill:#00B6F1;}
	.st3{fill:#BCBCBC;}
</style>
<g>
	<rect x="0" y="0" transform="matrix(6.123234e-17 -1 1 6.123234e-17 1.436468e-05 1000)" class="st0" width="1000" height="1000"/>
	<g>
		<polygon class="st1" points="964.87,400.27 875.7,400.27 875.7,35.12 964.87,35.12 964.87,400.27 		"/>
		<polygon class="st1" points="35.01,35.12 124.17,35.12 124.17,400.27 35.01,400.27 35.01,35.12 		"/>
		<polygon class="st1" points="140.09,35.12 229.26,35.12 229.26,400.27 140.09,400.27 140.09,35.12 		"/>
		<polygon class="st1" points="245.18,35.12 334.35,35.12 334.35,400.27 245.18,400.27 245.18,35.12 		"/>
		<polygon class="st1" points="350.26,35.12 439.43,35.12 439.43,400.27 350.26,400.27 350.26,35.12 		"/>
		<polygon class="st1" points="455.35,35.12 544.52,35.12 544.52,400.27 455.35,400.27 455.35,35.12 		"/>
		<polygon class="st1" points="560.44,35.12 649.61,35.12 649.61,400.27 560.44,400.27 560.44,35.12 		"/>
		<polygon class="st1" points="665.52,35.12 754.7,35.12 754.7,400.27 665.52,400.27 665.52,35.12 		"/>
		<polygon class="st1" points="770.61,35.12 859.79,35.12 859.79,400.27 770.61,400.27 770.61,35.12 		"/>
		<g>
			<polygon class="st2" points="408.66,417.26 368.3,485.19 408.66,485.19 			"/>
			<rect x="593.36" y="502.18" class="st2" width="108.26" height="70.03"/>
			<rect x="593.36" y="589.21" class="st2" width="108.26" height="70.07"/>
			<rect x="654.91" y="417.26" class="st2" width="46.71" height="67.93"/>
			<polygon class="st2" points="289.76,417.26 204.86,417.26 245.19,485.19 			"/>
			<polygon class="st2" points="124.16,485.19 35.03,485.19 35.03,417.29 83.83,417.29 			"/>
			<polygon class="st2" points="35.03,502.2 134.81,502.2 174.24,572.21 35.03,572.21 			"/>
			<rect x="35.03" y="589.22" class="st2" width="150.7" height="70.05"/>
			<rect x="824.72" y="417.29" class="st2" width="140.15" height="67.91"/>
			<rect x="824.72" y="502.2" class="st2" width="140.15" height="70.02"/>
			<rect x="824.72" y="589.22" class="st2" width="140.15" height="70.05"/>
			<polygon class="st2" points="916.04,676.24 964.87,676.24 964.87,744.19 35.03,744.19 35.03,676.24 185.73,676.24 185.73,727.8 
				308.88,727.8 308.88,676.24 468.12,676.24 468.12,727.8 593.38,727.8 593.38,676.24 701.64,676.24 701.64,727.8 916.04,727.8 			
				"/>
			<rect x="308.88" y="589.21" class="st2" width="159.22" height="70.07"/>
			<polygon class="st2" points="468.1,502.18 359.82,502.18 319.5,572.21 468.1,572.21 			"/>
		</g>
		<path class="st3" d="M35.14,761.16v203.82h929.73V761.16H35.14z M124.43,923.9c-31.89,0-53.56-23.2-53.56-59.81
			c0-32.7,16.59-61.8,54.86-61.8c6.58,0,23.01,0.67,35.99,13.47c5.93,5.92,8.9,12.81,11.19,21.02l-23.5,5.61
			c-2.97-12.83-12.66-19.74-24.83-19.74c-29.24,0-29.24,32.21-29.24,39.78c0,11.02,1.32,22.02,6.25,29.59
			c4.26,6.57,12.17,11.49,22.69,11.49c15.74,0,22.97-11.99,25.95-24.82l23.01,7.23C170.78,895.13,162.88,923.9,124.43,923.9z
			 M316.04,921.92h-89.39V804.24h87.25v19.91h-63.59v26.13h59.15v19.88h-59.15v31.88h65.73V921.92z M482.02,921.92h-22.01v-92.69
			h-0.34l-22.86,92.69h-22.82l-23.17-92.69h-0.34v92.69h-22.01V804.24h35.5l21.19,80.2h0.33l20.89-80.2h35.65V921.92z
			 M628.29,921.92h-89.42V804.24h87.26v19.91h-63.59v26.13h59.17v19.88h-59.17v31.88h65.75V921.92z M775.01,921.92h-23.83
			l-47.01-76.74h-0.32v76.74h-22.01V804.24h22.98l47.84,78.58H753v-78.58h22.01V921.92z M917.49,824.15h-34.83v97.77h-23.68v-97.77
			h-34.84v-19.91h93.34V824.15z"/>
	</g>
</g>
<g>
	
		<rect x="1752.24" y="-302.34" transform="matrix(6.123234e-17 -1 1 6.123234e-17 2054.5796 2978.3462)" class="st0" width="1528.44" height="1528.44"/>
	<g>
		<polygon class="st1" points="2981.33,362.15 2892.16,362.15 2892.16,-3 2981.33,-3 2981.33,362.15 		"/>
		<polygon class="st1" points="2051.47,-3 2140.64,-3 2140.64,362.15 2051.47,362.15 2051.47,-3 		"/>
		<polygon class="st1" points="2156.55,-3 2245.73,-3 2245.73,362.15 2156.55,362.15 2156.55,-3 		"/>
		<polygon class="st1" points="2261.64,-3 2350.81,-3 2350.81,362.15 2261.64,362.15 2261.64,-3 		"/>
		<polygon class="st1" points="2366.73,-3 2455.9,-3 2455.9,362.15 2366.73,362.15 2366.73,-3 		"/>
		<polygon class="st1" points="2471.82,-3 2560.99,-3 2560.99,362.15 2471.82,362.15 2471.82,-3 		"/>
		<polygon class="st1" points="2576.91,-3 2666.08,-3 2666.08,362.15 2576.91,362.15 2576.91,-3 		"/>
		<polygon class="st1" points="2681.99,-3 2771.16,-3 2771.16,362.15 2681.99,362.15 2681.99,-3 		"/>
		<polygon class="st1" points="2787.08,-3 2876.25,-3 2876.25,362.15 2787.08,362.15 2787.08,-3 		"/>
		<g>
			<polygon class="st2" points="2425.13,379.15 2384.77,447.07 2425.13,447.07 			"/>
			<rect x="2609.82" y="464.07" class="st2" width="108.26" height="70.03"/>
			<rect x="2609.82" y="551.09" class="st2" width="108.26" height="70.07"/>
			<rect x="2671.37" y="379.15" class="st2" width="46.71" height="67.93"/>
			<polygon class="st2" points="2306.22,379.15 2221.32,379.15 2261.66,447.07 			"/>
			<polygon class="st2" points="2140.62,447.07 2051.49,447.07 2051.49,379.17 2100.29,379.17 			"/>
			<polygon class="st2" points="2051.49,464.08 2151.27,464.08 2190.7,534.1 2051.49,534.1 			"/>
			<rect x="2051.49" y="551.1" class="st2" width="150.7" height="70.05"/>
			<rect x="2841.18" y="379.17" class="st2" width="140.15" height="67.91"/>
			<rect x="2841.18" y="464.08" class="st2" width="140.15" height="70.02"/>
			<rect x="2841.18" y="551.1" class="st2" width="140.15" height="70.05"/>
			<polygon class="st2" points="2932.5,638.13 2981.33,638.13 2981.33,706.07 2051.49,706.07 2051.49,638.13 2202.19,638.13 
				2202.19,689.68 2325.34,689.68 2325.34,638.13 2484.58,638.13 2484.58,689.68 2609.85,689.68 2609.85,638.13 2718.1,638.13 
				2718.1,689.68 2932.5,689.68 			"/>
			<rect x="2325.34" y="551.09" class="st2" width="159.22" height="70.07"/>
			<polygon class="st2" points="2484.57,464.07 2376.28,464.07 2335.96,534.1 2484.57,534.1 			"/>
		</g>
		<path class="st3" d="M2051.61,723.05v203.82h929.73V723.05H2051.61z M2140.9,885.78c-31.89,0-53.56-23.2-53.56-59.81
			c0-32.7,16.59-61.8,54.86-61.8c6.58,0,23.01,0.67,35.99,13.47c5.93,5.92,8.9,12.81,11.19,21.02l-23.5,5.61
			c-2.97-12.83-12.66-19.74-24.83-19.74c-29.24,0-29.24,32.21-29.24,39.78c0,11.02,1.32,22.02,6.25,29.59
			c4.26,6.57,12.17,11.49,22.69,11.49c15.74,0,22.97-11.99,25.95-24.82l23.01,7.23C2187.24,857.02,2179.35,885.78,2140.9,885.78z
			 M2332.5,883.8h-89.39V766.12h87.25v19.91h-63.59v26.13h59.15v19.88h-59.15v31.88h65.73V883.8z M2498.48,883.8h-22.01v-92.69
			h-0.34l-22.86,92.69h-22.82l-23.17-92.69h-0.34v92.69h-22.01V766.12h35.5l21.19,80.2h0.33l20.89-80.2h35.65V883.8z M2644.75,883.8
			h-89.42V766.12h87.26v19.91H2579v26.13h59.17v19.88H2579v31.88h65.75V883.8z M2791.47,883.8h-23.83l-47.01-76.74h-0.32v76.74
			h-22.01V766.12h22.98l47.84,78.58h0.33v-78.58h22.01V883.8z M2933.95,786.03h-34.83v97.77h-23.68v-97.77h-34.84v-19.91h93.34
			V786.03z"/>
	</g>
</g>
</svg>
