<svg width="1000" height="1000" viewBox="0 0 1000 1000" fill="none" xmlns="http://www.w3.org/2000/svg">
<g clip-path="url(#clip0_355_64)">
<path d="M0 0L0 1000L1000 1000L1000 0L0 0Z" fill="white"/>
<path fill-rule="evenodd" clip-rule="evenodd" d="M800 435.616H742.462V200H800V435.616Z" fill="#BCBCBC"/>
<path fill-rule="evenodd" clip-rule="evenodd" d="M200 200H257.531V435.616H200V200Z" fill="#BCBCBC"/>
<path fill-rule="evenodd" clip-rule="evenodd" d="M267.804 200H325.342V435.616H267.804V200Z" fill="#BCBCBC"/>
<path fill-rule="evenodd" clip-rule="evenodd" d="M335.614 200H393.151V435.616H335.614V200Z" fill="#BCBCBC"/>
<path fill-rule="evenodd" clip-rule="evenodd" d="M403.418 200H460.955V435.616H403.418V200Z" fill="#BCBCBC"/>
<path fill-rule="evenodd" clip-rule="evenodd" d="M471.228 200H528.766V435.616H471.228V200Z" fill="#BCBCBC"/>
<path fill-rule="evenodd" clip-rule="evenodd" d="M539.038 200H596.576V435.616H539.038V200Z" fill="#BCBCBC"/>
<path fill-rule="evenodd" clip-rule="evenodd" d="M606.842 200H664.386V435.616H606.842V200Z" fill="#BCBCBC"/>
<path fill-rule="evenodd" clip-rule="evenodd" d="M674.652 200H732.196V435.616H674.652V200Z" fill="#BCBCBC"/>
<path d="M441.101 446.579L415.058 490.411H441.101V446.579Z" fill="#00B6F1"/>
<path d="M630.135 501.374H560.28V546.562H630.135V501.374Z" fill="#00B6F1"/>
<path d="M630.135 557.531H560.28V602.745H630.135V557.531Z" fill="#00B6F1"/>
<path d="M630.136 446.579H599.996V490.411H630.136V446.579Z" fill="#00B6F1"/>
<path d="M364.379 446.579H309.597L335.62 490.411L364.379 446.579Z" fill="#00B6F1"/>
<path d="M257.525 490.411H200.013V446.598H231.501L257.525 490.411Z" fill="#00B6F1"/>
<path d="M200.013 501.387H264.397L289.839 546.562H200.013V501.387Z" fill="#00B6F1"/>
<path d="M297.253 557.538H200.013V602.738H297.253V557.538Z" fill="#00B6F1"/>
<path d="M800 446.598H709.567V490.418H800V446.598Z" fill="#00B6F1"/>
<path d="M800 501.387H709.567V546.568H800V501.387Z" fill="#00B6F1"/>
<path d="M800 557.538H709.567V602.738H800V557.538Z" fill="#00B6F1"/>
<path d="M768.492 613.688H800V657.533H200.013V613.688H297.253V646.958H376.717V613.688H479.468V646.958H560.293V613.688H630.148V646.958H768.492V613.688Z" fill="#00B6F1"/>
<path d="M479.455 557.531H376.717V602.745H479.455V557.531Z" fill="#00B6F1"/>
<path d="M479.455 501.374H409.586L383.569 546.562H479.455V501.374Z" fill="#00B6F1"/>
<path d="M200.084 668.483V800H800V668.483H200.084ZM257.699 773.493C237.122 773.493 223.139 758.523 223.139 734.9C223.139 713.8 233.844 695.023 258.538 695.023C262.784 695.023 273.385 695.455 281.761 703.715C285.587 707.534 287.504 711.98 288.981 717.278L273.818 720.898C271.901 712.619 265.649 708.16 257.796 708.16C238.929 708.16 238.929 728.944 238.929 733.829C238.929 740.939 239.78 748.037 242.961 752.922C245.71 757.161 250.814 760.336 257.602 760.336C267.759 760.336 272.424 752.599 274.347 744.321L289.194 748.986C287.607 754.929 282.509 773.493 257.699 773.493ZM381.337 772.215H323.657V696.281H379.956V709.128H338.924V725.989H377.091V738.817H338.924V759.387H381.337V772.215ZM488.437 772.215H474.235V712.406H474.016L459.265 772.215H444.54L429.589 712.406H429.37V772.215H415.168V696.281H438.075L451.748 748.031H451.961L465.44 696.281H488.444V772.215H488.437ZM582.819 772.215H525.12V696.281H581.425V709.128H540.393V725.989H578.573V738.817H540.393V759.387H582.819V772.215ZM677.491 772.215H662.115L631.781 722.698H631.575V772.215H617.373V696.281H632.201L663.07 746.986H663.289V696.281H677.491V772.215ZM769.428 709.128H746.953V772.215H731.674V709.128H709.193V696.281H769.421V709.128H769.428Z" fill="#BCBCBC"/>
</g>
<defs>
<clipPath id="clip0_355_64">
<rect width="1000" height="1000" fill="white"/>
</clipPath>
</defs>
</svg>
